<svg width="221" height="48" viewBox="0 0 221 48" fill="none" xmlns="http://www.w3.org/2000/svg">
<path fill-rule="evenodd" clip-rule="evenodd" d="M5.36475 9.34612C3.65727 4.46908 4.16477 -4.84496 6.3948 -9.55396C7.67895 -12.2653 9.38887 -11.407 8.4353 -8.52971C7.3727 -5.32292 7.47227 3.28349 8.6236 7.72867C9.7457 12.0611 10.8617 14.6725 10.9586 13.1924C11.3867 6.64982 15.3945 -0.0529213 19.8173 -1.62362C21.9794 -2.3914 22.3567 -0.933979 20.3027 0.251771C14.4787 3.61385 12.847 14.9553 16.8384 24.3319C17.952 26.948 22.4622 35.2811 23.9027 37.3844L25.4569 39.6532L26.7646 35.6535C28.0869 31.6096 30.1948 26.844 30.6593 26.8488C30.798 26.8502 31.3355 27.4326 31.8533 28.1431L32.7948 29.4347L31.9289 31.5965C30.7228 34.6075 29.5972 38.3279 28.5953 42.6155C27.6071 46.8444 27.3561 47.2308 25.5972 47.2308C24.1807 47.2308 24.0456 47.0747 21.2467 42.2024C16.3859 33.7416 15.5879 32.1727 14.3101 31.3412C13.8611 31.049 13.3528 30.8479 12.5882 30.4708C5.17522 26.814 0.20522 20.5289 0.0772949 14.6488C0.00396991 11.2777 1.13115 11.3408 2.05042 14.7593C3.34752 19.5826 6.3206 23.5326 10.1004 25.4541C12.7282 26.7901 12.7536 26.7639 11.3835 24.1374C9.98755 21.4607 6.50697 13.3616 6.23905 12.1655C6.12845 11.6725 5.73505 10.4039 5.36475 9.34612ZM59.8918 -7.90823C59.6634 -9.14825 59.574 -10.4 59.6933 -10.6902C60.0232 -11.4931 61.0403 -10.931 61.7265 -9.56638C65.7354 -1.59404 64.3238 8.6586 57.1947 23.3476C55.6206 26.591 55.6437 26.767 57.5225 25.8595C61.3194 24.0255 64.7094 19.6287 66.0997 14.7343C67.2122 10.8184 68.7914 11.4293 68.1072 15.5107C67.1378 21.2911 62.3316 27.1839 56.201 30.1082C54.1098 31.1056 52.8356 31.988 52.3433 32.7796C51.0517 34.8561 47.5179 40.8072 46.1602 43.1923C43.9577 47.0614 43.7998 47.2308 42.3925 47.2308C40.6819 47.2308 40.3933 46.8197 39.5563 43.1923C36.2416 28.8258 31.5726 20.5583 25.0178 17.4484C23.6045 16.7779 23.4517 15.9804 24.6935 15.7554C25.8581 15.5444 29.582 17.5331 31.8846 19.5955L34.0308 21.5178L36.4521 19.4239C39.9378 16.4095 43.6667 14.893 44.1637 16.2878C44.2428 16.5095 43.183 17.3706 41.8087 18.2013C40.4344 19.032 38.56 20.6197 37.6433 21.7295L35.9766 23.7474L38.0497 27.7006C39.9738 31.3696 40.4831 32.6822 41.9636 37.7889L42.5157 39.6933L44.1036 37.4043C54.8526 21.9088 56.5554 7.78342 48.518 0.785145C45.6273 -1.73167 45.9222 -2.81248 49.0733 -1.25109C53.3148 0.850695 57.0377 7.36382 57.0652 12.7304C57.0736 14.3963 57.5846 13.6113 58.8924 9.92314C60.7708 4.62568 61.1044 -1.32563 59.8918 -7.90823ZM91.9844 24.8281L91.5469 21.8281L87.9531 6.25H84.9531L90.4531 29H93.1875L98.0469 12.4219L98.4062 10.6875L98.7656 12.4219L103.453 29H106.188L111.703 6.25H108.688L105.156 21.8125L104.672 24.875L104.047 22.125L99.6562 6.25H97.125L92.625 22.125L91.9844 24.8281ZM115.266 29H118.266V6.25H115.266V29ZM137.562 26.5469H126.781V6.25H123.766V29H137.562V26.5469ZM140.984 6.25V29H147.281C149.323 28.9792 151.109 28.5365 152.641 27.6719C154.182 26.8073 155.365 25.5677 156.188 23.9531C157.021 22.3385 157.438 20.4583 157.438 18.3125V16.8594C157.427 14.7656 157.005 12.9115 156.172 11.2969C155.349 9.68229 154.177 8.4375 152.656 7.5625C151.135 6.6875 149.385 6.25 147.406 6.25H140.984ZM143.984 26.5469V8.71875H147.484C149.714 8.73958 151.432 9.46875 152.641 10.9062C153.859 12.3333 154.469 14.3385 154.469 16.9219V18.25C154.469 20.9063 153.823 22.9531 152.531 24.3906C151.25 25.8281 149.453 26.5469 147.141 26.5469H143.984ZM175.781 26.5469H165V6.25H161.984V29H175.781V26.5469ZM179.422 29H182.422V6.25H179.422V29ZM190.922 18.9531H200.469V16.5H190.922V8.71875H202.016V6.25H187.922V29H190.922V18.9531ZM208.609 18.4844H218.469V16.0312H208.609V8.71875H219.906V6.25H205.609V29H220.062V26.5469H208.609V18.4844Z" fill="#F7F7F7"/>
</svg>
